<?xml version="1.0"?>
<svg xmlns="http://www.w3.org/2000/svg" width="130.092" height="37.937" viewBox="0 0 130.092 37.937"><path d="M27.582,20.12a6.9,6.9,0,0,0-6.744-.867,6.356,6.356,0,0,1-1.884.3,5.99,5.99,0,0,1-5.764-4.37H29.654a11.776,11.776,0,0,0,.151-1.62,10.888,10.888,0,1,0-2.223,6.555ZM18.955,7.574A5.994,5.994,0,0,1,24.3,10.89H13.6A5.994,5.994,0,0,1,18.955,7.574Z" transform="translate(22.45 7.166)" fill="#c39378"/><path d="M7.347,0H0A7.332,7.332,0,0,0,7.347,7.347h7.347A7.332,7.332,0,0,0,7.347,0Z" fill="#ef8da5"/><path d="M11.89,2.72A10.853,10.853,0,0,0,1.04,13.57V31.014a4.872,4.872,0,0,0,4.86-4.86V22.613A10.849,10.849,0,1,0,11.89,2.72Zm0,16.841a5.99,5.99,0,1,1,5.99-5.99A5.981,5.981,0,0,1,11.89,19.561Z" transform="translate(2.878 6.923)" fill="#c39378"/><path d="M25.98,2.72a10.85,10.85,0,1,0,0,21.7,10.731,10.731,0,0,0,6.744-2.374,4.843,4.843,0,0,0,4.107,2.336V13.57A10.853,10.853,0,0,0,25.98,2.72Zm0,16.841a5.99,5.99,0,1,1,5.99-5.99A5.981,5.981,0,0,1,25.98,19.561Z" transform="translate(41.873 7.16)" fill="#c39378"/><path d="M34.19,9.241V.99a4.872,4.872,0,0,0-4.86,4.86V29.209a4.872,4.872,0,0,0,4.86-4.86V17.266a4.933,4.933,0,0,1,5.425-4.9,5.1,5.1,0,0,1,4.446,5.124V29.02h4.86V17.3a9.756,9.756,0,0,0-9.494-9.758,8.213,8.213,0,0,0-5.2,1.733Z" transform="translate(81.171 2.74)" fill="#c39378"/><path d="M35.388,19.212a5.8,5.8,0,0,1-2.11.377,6.01,6.01,0,0,1-5.764-4.37,5.876,5.876,0,0,1-.226-1.658A5.972,5.972,0,0,1,38.025,9.944L41.868,7A10.838,10.838,0,0,0,22.39,13.56a14.835,14.835,0,0,0,.113,1.658A10.87,10.87,0,0,0,33.24,24.411a10.724,10.724,0,0,0,8.628-4.295,6.753,6.753,0,0,0-6.518-.942Z" transform="translate(61.965 7.134)" fill="#c39378"/></svg>
