<svg width="205" height="84" viewBox="0 0 205 84" fill="none" xmlns="http://www.w3.org/2000/svg">
<g clip-path="url(#clip0_3937_34697)">
<path d="M115.976 18.8594H109.264C107.842 18.8594 105.528 19.7279 104.998 22.4645C103.539 29.8056 102.636 37.8605 101.611 45.0469C100.671 38.2056 99.1287 29.0441 97.7549 22.0005C97.3572 20.3228 95.7785 18.8594 93.4647 18.8594H86.6439C84.3301 18.8594 82.7514 20.3228 82.3537 22.0005C80.6545 29.0917 79.353 38.158 78.4853 44.9755C77.461 37.8129 76.5571 29.7818 75.111 22.4645C74.5808 19.7279 72.267 18.8594 70.8449 18.8594H64.1325C62.2164 18.8594 59.3241 20.2633 59.6495 23.6781C60.9751 35.4095 64.3374 50.6628 68.2178 64.5121C68.8324 67.0702 70.9052 68.0339 72.6526 68.0339H81.486C84.1975 68.0339 85.6195 65.8922 85.8846 64.4764L89.9699 46.0464H90.1386L94.224 64.4764C94.4891 65.8922 95.9111 68.0339 98.6226 68.0339H107.456C109.203 68.0339 111.288 67.0702 111.891 64.5121C115.771 50.6509 119.133 35.4095 120.459 23.6781C120.784 20.2752 117.892 18.8594 115.976 18.8594Z" fill="#D22C26"/>
<path d="M7.38407 8.84012C7.38407 6.38913 9.3966 4.41406 11.8671 4.41406H20.0618C22.5443 4.41406 24.5448 6.38913 24.5448 8.84012V18.8583H28.8711C30.5703 18.8583 31.9441 20.2146 31.9441 21.8922V26.818C31.9441 28.4956 30.5703 29.852 28.8711 29.852H24.5448V53.0294C24.5448 55.8492 26.3404 56.8486 28.8711 56.8486C30.5703 56.8486 31.9441 58.205 31.9441 59.8826V64.9988C31.9441 66.6764 30.5703 68.0328 28.8711 68.0328C26.4729 68.2112 24.0025 68.2945 22.1828 68.2945C12.566 68.2945 7.38407 62.4883 7.38407 51.5778V29.8401H4.00978C2.31059 29.8401 0.936768 28.4837 0.936768 26.8061V21.8803C0.936768 20.2027 2.31059 18.8464 4.00978 18.8464H7.38407V8.84012Z" fill="#D22C26"/>
<path d="M189.668 22.3696C190.09 20.3589 191.897 18.8597 194.055 18.8597H200.454C202.924 18.8597 204.937 20.8467 204.937 23.2858C204.937 23.5238 204.913 23.7617 204.876 23.9878C202.611 37.6824 197.658 54.6133 193.151 69.1764C189.716 80.2654 185.233 84.0014 176.749 84.0014C174.676 84.0014 172.411 83.9657 170.627 83.8705C168.928 83.8705 167.554 82.5141 167.554 80.8365V75.5776C167.554 73.9 168.928 72.5436 170.627 72.5436C170.772 72.5436 170.917 72.5436 171.061 72.5436C174.99 72.5436 176.327 69.8189 176.303 68.8195C176.279 67.1895 175.954 66.4518 175.604 65.1787C172.471 55.2558 168.735 39.479 165.53 24.1781C165.47 23.8807 165.433 23.5713 165.433 23.262C165.433 20.8229 167.446 18.8359 169.916 18.8359H176.46C178.545 18.8359 180.292 20.2399 180.798 22.1436C182.486 28.2711 184.233 39.8597 185.619 46.9747H185.788C186.981 39.0269 188.415 28.045 189.668 22.3578V22.3696Z" fill="#D22C26"/>
<path d="M135.258 68.6149C126.966 68.6149 121.604 63.118 121.604 54.6228C121.604 46.1277 127.762 40.2144 140.982 36.8234C143.983 36.1214 145.26 34.6937 145.26 32.0404C145.26 30.1724 143.922 28.8161 142.078 28.8161C140.415 28.8161 139.21 29.6608 138.849 31.0886C138.21 33.6347 136.475 34.8127 133.378 34.8127H129.027C125.93 34.8127 124.002 32.9566 124.002 29.9702C124.002 29.4585 124.074 28.9707 124.231 28.5067C127.027 19.0954 136.619 17.6914 142.078 17.6914C148.345 17.6914 152.671 18.6908 155.696 20.8444C159.239 23.3668 161.083 27.5549 161.324 33.6347C161.637 40.8687 161.878 55.2534 161.42 63.1894C161.42 65.8308 159.167 68.0081 156.395 68.0081H150.719C148.14 68.0081 146.128 66.152 145.73 63.475C143.573 66.7469 139.825 68.603 135.246 68.603L135.258 68.6149ZM145.561 46.092C144.874 46.6393 143.97 47.0914 143.018 47.5673C140.777 48.6738 138.234 49.935 137.897 52.8144C137.752 54.0755 138.053 55.1583 138.764 55.9197C139.379 56.586 140.295 56.9906 141.199 56.9906C143.814 56.9906 145.549 55.8126 145.549 50.0897V46.0801L145.561 46.092Z" fill="#D22C26"/>
<path d="M53.2263 5.79434C53.166 5.65156 53.0937 5.52068 53.0214 5.3779C51.3463 2.18924 47.9841 0 44.0916 0C38.5361 0 34.041 4.44986 34.041 9.92295C34.041 13.0997 35.5474 15.9196 37.8973 17.7399C40.7655 19.9411 43.6939 24.0697 36.7766 30.5065C35.4751 31.851 36.403 32.9099 37.2827 33.4691C39.4037 34.8255 40.8016 34.6232 43.0672 33.4691C48.8758 30.4946 59.3843 18.43 53.2383 5.78244L53.2263 5.79434Z" fill="#82AB42"/>
</g>
<defs>
<clipPath id="clip0_3937_34697">
<rect width="204" height="84" fill="white" transform="translate(0.936768)"/>
</clipPath>
</defs>
</svg>
