<?xml version="1.0" encoding="utf-8"?>
<!-- Generator: Adobe Illustrator 22.1.0, SVG Export Plug-In . SVG Version: 6.00 Build 0)  -->
<svg version="1.1" id="レイヤー_1" xmlns="http://www.w3.org/2000/svg" xmlns:xlink="http://www.w3.org/1999/xlink" x="0px"
	 y="0px" width="1026px" height="246px" viewBox="0 0 1026 246" style="enable-background:new 0 0 1026 246;" xml:space="preserve">
<style type="text/css">
	.st0{fill:none;}
	.st1{fill:#1A1A1A;}
	.st2{fill:#009877;}
</style>
<rect class="st0" width="1026" height="246"/>
<g>
	<path class="st1" d="M1023.2,194v8.29l-53.6-0.4c-59.69-25.25-41.17-84.72-104.64-95.13c-8.85-1.45-18.72-1.28-18.72-1.28
		s0.01,13.61,0.01,40.41c0,39.02,3.73,47.31,34.87,47.31v8.29H784v-8.29c31.69,0,30.96-10.53,30.96-47.86
		c0-60.84-0.04-75.12-0.04-97.17c0-28.7-0.11-35.28-29.33-35.28V4.73c48.98-1.91,97.49-5.06,129.15,2.08
		c29.38,6.63,43.14,29.04,43.14,46.18c0,20.01-8.94,42.35-60.94,49.04c42.48,5.4,66.17,55.92,88.58,76.28
		C999.57,191.07,1011.69,194,1023.2,194z M845.76,95.07c0,0,0,0,0.44,0c39.01,0,74.46-1.58,74.46-43.8
		c0-42.23-41.87-40.92-74.46-39.23L845.76,95.07z"/>
	<path class="st1" d="M676.67,4.72h88.52v8.34c-24.57,0-28.52,0.2-28.52,40.09c0,42.57-0.12,73.77-0.12,102.26
		c0,31.9,1.88,37.82,28.65,37.82l0.02,8.29H598.69v-8.29c24.76,0,23.57-12.69,20.67-19.27c-1.69-3.81-10.31-21.69-15.75-33.12
		c-5.44-11.43-8.08-17.07-8.08-17.07h-81.48c0,0-3.08,6.72-8.56,18.14c-5.48,11.42-9.46,19.7-12.47,26.83
		c-6.8,16.1,3.09,24.48,28.34,24.48v8.29h-76.39v-8.29c24.22,0,27.36-8.42,37.01-27.85C489.62,150.01,560.39,2,560.39,2h10.13
		c0,0,72.82,151.26,80.56,167.01c7.74,15.74,12.7,24.38,27.38,24.38c14.96,0,26.78,0.03,26.78-38.14c0-34.09,0.01-81.06,0.01-101.92
		c0-37.02-2.25-40.41-28.61-40.41V4.72z M590.46,113.36c0,0-3.9-7.8-8.93-18.27c-5.03-10.47-26.81-55.79-26.81-55.79
		s-21.79,45.31-26.79,55.79c-5.01,10.48-8.89,18.27-8.89,18.27H590.46z"/>
	<path class="st1" d="M313.23,4.73c89.98-3.92,118.09-2.77,141.04,8.07c22.96,10.84,25.8,31.23,25.8,41.74
		c0,10.51-5.48,30.66-21.34,39.54c-13.52,7.57-28.85,12.05-84.53,11.02c0,0,0.05,34.03,0.05,53.03c0,31.05,1.81,35.1,31.03,35.1
		v8.29h-92.07v-8.29c28.21,0,29.68-4.3,29.68-37.65c0-25.78,0-78.94,0-107.22c0-33.85,0.51-35.45-29.66-35.45V4.73z M374.21,95
		c38.9,0.78,72.13-1.12,72.13-41.83c0-40.71-41.41-42.94-72.13-40.52V95z"/>
	<rect x="449.32" y="221.19" class="st2" width="570.08" height="20.14"/>
	<path class="st1" d="M7.53,54.5h11.96c16.78-31.68,33.27-39.46,44.45-39.46c11.18,0,78.7,0,78.7,0L2,192.33l4.1,9.19h164.43
		l25.74-57.81h-12.01c-18.7,35.41-36.64,45.64-50.01,45.64c-13.37,0-87.43,0-87.43,0L186.48,13.52l-3.94-8.74H29.66L7.53,54.5z"/>
	<path class="st1" d="M294.19,201.52h-88.53v-8.29c26.37,0,28.62-3.48,28.62-41.48c0,0,0-65.7,0-97.75c0-38-2.43-41.1-28.62-41.1
		V4.72h88.54l0,0v8.18c-26.68,0-28.62,3.1-28.62,41.1c0,32.05,0,97.75,0,97.75c0,38,2.61,41.46,28.62,41.46v0.02L294.19,201.52
		L294.19,201.52z"/>
</g>
</svg>
